<svg xmlns="http://www.w3.org/2000/svg" width="26.286" height="29.908" viewBox="0 0 26.286 29.908">
  <g id="profile" transform="translate(-31)">
    <g id="Group_2" data-name="Group 2" transform="translate(36.257)">
      <g id="Group_1" data-name="Group 1">
        <path id="Path_3" data-name="Path 3" d="M128.886,0a7.886,7.886,0,1,0,7.886,7.886A7.895,7.895,0,0,0,128.886,0Z" transform="translate(-121)"/>
      </g>
    </g>
    <g id="Group_4" data-name="Group 4" transform="translate(31 17.524)">
      <g id="Group_3" data-name="Group 3" transform="translate(0)">
        <path id="Path_4" data-name="Path 4" d="M53.955,303.4A11.242,11.242,0,0,0,45.9,300h-3.5a11.242,11.242,0,0,0-8.059,3.4A11.492,11.492,0,0,0,31,311.507a.876.876,0,0,0,.876.876H56.41a.876.876,0,0,0,.876-.876A11.492,11.492,0,0,0,53.955,303.4Z" transform="translate(-31 -300)"/>
      </g>
    </g>
  </g>
</svg>
